<?xml version="1.0" encoding="UTF-8" standalone="no"?>
<!DOCTYPE svg PUBLIC "-//W3C//DTD SVG 1.1//EN" "http://www.w3.org/Graphics/SVG/1.1/DTD/svg11.dtd">
<svg width="100%" height="100%" viewBox="0 0 1400 72500" version="1.1" xmlns="http://www.w3.org/2000/svg" xmlns:xlink="http://www.w3.org/1999/xlink" xml:space="preserve" xmlns:serif="http://www.serif.com/" style="fill-rule:evenodd;clip-rule:evenodd;stroke-linecap:round;stroke-linejoin:round;stroke-miterlimit:1.5;">
    <rect id="sartre-sn" x="0" y="0" width="1400" height="72500" style="fill:none;"/>
    <g id="sartre-sn1" serif:id="sartre-sn">
        <g id="export">
            <g id="scribbles">
            </g>
            <g id="svg-elements">
                <g id="Einl-I-Idee-Phänom">
                    <g id="words">
                        <g transform="matrix(17.5074,0,0,17.5074,480.614,72058.5)">
                        </g>
                        <text x="396.841px" y="72058.5px" style="font-family:'Blushes-Regular', 'Blushes';font-size:17.507px;fill:rgb(124,119,99);">PHÄNOMEN</text>
                        <g transform="matrix(16,0,0,16,476.507,71961.5)">
                        </g>
                        <text x="404.011px" y="71961.5px" style="font-family:'Blushes-Regular', 'Blushes';font-size:16px;fill:rgb(124,119,99);">Noumenon</text>
                        <g transform="matrix(16,0,0,16,655.923,72032.8)">
                        </g>
                        <text x="558.419px" y="72032.8px" style="font-family:'Blushes-Regular', 'Blushes';font-size:16px;fill:rgb(124,119,99);">ist das Wesen</text>
                        <g transform="matrix(28.6769,0,0,28.6769,650.198,71997.9)">
                        </g>
                        <text x="494.913px" y="71997.9px" style="font-family:'Blushes-Regular', 'Blushes';font-size:28.677px;fill:rgb(124,119,99);">Erscheinung</text>
                        <g transform="matrix(16,0,0,16,681.547,71967.1)">
                        </g>
                        <text x="633.483px" y="71967.1px" style="font-family:'Blushes-Regular', 'Blushes';font-size:16px;fill:rgb(124,119,99);">in actu</text>
                    </g>
                    <g id="lines">
                        <path d="M482.098,72041.5L513.233,72004.8" style="fill:none;stroke:rgb(124,119,99);stroke-width:1px;"/>
                        <path d="M586.388,72004.8L595.79,72023.1" style="fill:none;stroke:rgb(124,119,99);stroke-width:1px;"/>
                        <path d="M476.211,71967.5L470.663,71966.2L472.939,71971.4L476.211,71967.5Z" style="fill:rgb(124,119,99);"/>
                        <path d="M492.149,71980.8L494.426,71986.1L488.877,71984.7L492.149,71980.8Z" style="fill:rgb(124,119,99);"/>
                        <path d="M473.793,71968.8C478.345,71972.6 486.744,71979.6 491.296,71983.4" style="fill:none;stroke:rgb(124,119,99);stroke-width:1px;"/>
                        <path d="M595.79,71978.7L631.634,71962.8" style="fill:none;stroke:rgb(124,119,99);stroke-width:1px;"/>
                        <path d="M562.578,71976.2L553.165,71947.5" style="fill:none;stroke:rgb(124,119,99);stroke-width:1px;"/>
                    </g>
                </g>
                <g id="_1-1-I-Nichts-Frage" serif:id="1-1-I-Nichts-Frage">
                    <g transform="matrix(29.444,0,0,29.444,569.562,69116.2)">
                    </g>
                    <text x="395.989px" y="69116.2px" style="font-family:'Blushes-Regular', 'Blushes';font-size:29.444px;fill:rgb(124,119,99);">Das Konkrete</text>
                    <g transform="matrix(29.444,0,0,29.444,833.552,69148.2)">
                    </g>
                    <text x="531.604px" y="69148.2px" style="font-family:'Blushes-Regular', 'Blushes';font-size:29.444px;fill:rgb(124,119,99);">s<tspan x="545.649px 559.487px " y="69148.2px 69148.2px ">yn</tspan>thetische T<tspan x="727.436px 742.894px " y="69148.2px 69148.2px ">ot</tspan>alität</text>
                    <g transform="matrix(16.8615,0,0,16.8615,639.92,69171.7)">
                    </g>
                    <text x="417.736px" y="69171.7px" style="font-family:'Blushes-Regular', 'Blushes';font-size:16.862px;fill:rgb(124,119,99);">In-der-W<tspan x="485.334px " y="69171.7px ">e</tspan>lt-Sein (Heide<tspan x="597.244px 606.872px " y="69171.7px 69171.7px ">gg</tspan>er)</text>
                    <g transform="matrix(29.444,0,0,29.444,910.81,69059.2)">
                    </g>
                    <text x="726.608px" y="69059.2px" style="font-family:'Blushes-Regular', 'Blushes';font-size:29.444px;fill:rgb(124,119,99);">BEWUSS<tspan x="836.699px 854.277px " y="69059.2px 69059.2px ">TS</tspan>EIN</text>
                    <path d="M584.998,69069L675.564,69125.9" style="fill:none;stroke:rgb(124,119,99);stroke-width:1px;"/>
                    <path d="M774.718,69069L684.151,69125.9" style="fill:none;stroke:rgb(124,119,99);stroke-width:1px;"/>
                    <g transform="matrix(29.444,0,0,29.444,583.068,69061.3)">
                    </g>
                    <text x="442.178px" y="69061.3px" style="font-family:'Blushes-Regular', 'Blushes';font-size:29.444px;fill:rgb(124,119,99);">PHÄNOMEN</text>
                    <path d="M484.63,69122L484.63,69140.6L528.375,69140.6" style="fill:none;stroke:rgb(124,119,99);stroke-width:1px;"/>
                    <g transform="matrix(21.2912,0,0,21.2912,747.983,69105)">
                    </g>
                    <text x="601.691px" y="69105px" style="font-family:'Blushes-Regular', 'Blushes';font-size:21.291px;fill:rgb(124,119,99);fill-opacity:0.35;">M<tspan x="625.494px 648.127px 671.93px 692.966px 714.236px 735.974px " y="69105px 69105px 69105px 69105px 69105px 69105px ">OMENTE</tspan></text>
                </g>
            </g>
        </g>
    </g>
</svg>
