
  <svg id="meinSVG" width="1200" height="4000" style="border:1px solid gray;">
  <g transform="translate(0, 3550)"><rect x="100" y="-950" width="1000" height="950" fill="rgba(207, 194, 134, 0.2)" id="part-einleitung:-auf-der-suche-nach-dem-sein"></rect><text x="125" y="-25" font-size="14" fill="#222">Einleitung: Auf der Suche nach dem Sein</text><rect x="125" y="-925" width="950" height="875" fill="rgba(207, 194, 134, 0.2)" id="chapter---"></rect><text x="150" y="-75" font-size="14" fill="#222">--</text><rect x="150" y="-300" width="900" height="200" fill="rgba(207, 194, 134, 0.2)" id="section-i.-die-idee-des-phänomens"></rect><text x="175" y="-125" font-size="14" fill="#222">I. Die Idee des Phänomens</text><rect x="150" y="-625" width="900" height="300" fill="rgba(207, 194, 134, 0.2)" id="section-ii.-das-seinsphänomen-und-das-sein-des-phänomens"></rect><text x="175" y="-350" font-size="14" fill="#222">II. Das Seinsphänomen und das Sein des Phänomens</text><rect x="150" y="-900" width="900" height="250" fill="rgba(207, 194, 134, 0.2)" id="section-iii.-das-*präreflexive*-cogito-und-das-sein-des-*percipere*"></rect><text x="175" y="-675" font-size="14" fill="#222">III. Das *präreflexive* Cogito und das Sein des *percipere*</text><rect x="100" y="-3400" width="1000" height="2400" fill="rgba(207, 194, 134, 0.2)" id="part-erster-teil:-das-problem-des-nichts"></rect><text x="125" y="-1025" font-size="14" fill="#222">Erster Teil: Das Problem des Nichts</text><rect x="125" y="-2725" width="950" height="1675" fill="rgba(207, 194, 134, 0.2)" id="chapter-erstes-kapitel:-der-ursprung-der-negation"></rect><text x="150" y="-1075" font-size="14" fill="#222">Erstes Kapitel: Der Ursprung der Negation</text><rect x="150" y="-1300" width="900" height="200" fill="rgba(207, 194, 134, 0.2)" id="section-i.-die-frage"></rect><text x="175" y="-1125" font-size="14" fill="#222">I. Die Frage</text><rect x="150" y="-1725" width="900" height="400" fill="rgba(207, 194, 134, 0.2)" id="section-ii.-die-negationen"></rect><text x="175" y="-1350" font-size="14" fill="#222">II. Die Negationen</text><rect x="150" y="-2050" width="900" height="300" fill="rgba(207, 194, 134, 0.2)" id="section-iii.-das-nichts"></rect><text x="175" y="-1775" font-size="14" fill="#222">III. Das Nichts</text><rect x="150" y="-2425" width="900" height="350" fill="rgba(207, 194, 134, 0.2)" id="section-iv.-das-sein-des-menschen-und-das-nichts"></rect><text x="175" y="-2100" font-size="14" fill="#222">IV. Das Sein des Menschen und das Nichts</text><rect x="150" y="-2700" width="900" height="250" fill="rgba(207, 194, 134, 0.2)" id="section-v.-die-negation-und-die-freiheit"></rect><text x="175" y="-2475" font-size="14" fill="#222">V. Die Negation und die Freiheit</text><rect x="125" y="-3375" width="950" height="600" fill="rgba(207, 194, 134, 0.2)" id="chapter-zweites-kapitel:-die-unaufrichtigkeit"></rect><text x="150" y="-2800" font-size="14" fill="#222">Zweites Kapitel: Die Unaufrichtigkeit</text><rect x="150" y="-3125" width="900" height="300" fill="rgba(207, 194, 134, 0.2)" id="section-i.-unaufrichtigkeit-und-lüge"></rect><text x="175" y="-2850" font-size="14" fill="#222">I. Unaufrichtigkeit und Lüge</text><rect x="150" y="-3350" width="900" height="200" fill="rgba(207, 194, 134, 0.2)" id="section-ii.-die-verhaltensweisen-der-unaufrichtigkeit"></rect><text x="175" y="-3175" font-size="14" fill="#222">II. Die Verhaltensweisen der Unaufrichtigkeit</text></g></svg>
