<?xml version="1.0" encoding="UTF-8" standalone="no"?>
<!DOCTYPE svg PUBLIC "-//W3C//DTD SVG 1.1//EN" "http://www.w3.org/Graphics/SVG/1.1/DTD/svg11.dtd">
<svg width="100%" height="100%" viewBox="0 0 2048 4172" version="1.1" xmlns="http://www.w3.org/2000/svg" xmlns:xlink="http://www.w3.org/1999/xlink" xml:space="preserve" xmlns:serif="http://www.serif.com/" style="fill-rule:evenodd;clip-rule:evenodd;stroke-linejoin:round;stroke-miterlimit:2;">
    <rect id="Artboard3" x="0" y="0" width="2048" height="4171.81" style="fill:none;"/>
    <clipPath id="_clip1">
        <rect id="Artboard31" serif:id="Artboard3" x="0" y="0" width="2048" height="4171.81"/>
    </clipPath>
    <g clip-path="url(#_clip1)">
        <rect id="BG" x="-0" y="0" width="2048" height="4171.81" style="fill:rgb(223,216,187);"/>
        <g id="Inhaltsverzeichnis">
            <g>
                <rect x="107.684" y="2270.5" width="1802.89" height="1687.76" style="fill:white;fill-opacity:0.5;"/>
                <g transform="matrix(48,0,0,48,1192.9,3890.15)">
                </g>
                <text x="164.84px" y="3890.15px" style="font-family:'MontserratThin-Bold', 'Montserrat Thin';font-weight:700;font-size:48px;">Einleitun<tspan x="391.064px " y="3890.15px ">g</tspan>: A<tspan x="487.112px " y="3890.15px ">u</tspan>f der Suc<tspan x="741.8px 775.16px " y="3890.15px 3890.15px ">he</tspan> na<tspan x="882.008px 910.184px " y="3890.15px 3890.15px ">ch</tspan> dem Sein</text>
            </g>
            <g>
                <rect x="107.684" y="67.34" width="1802.89" height="2157.7" style="fill:white;fill-opacity:0.5;"/>
                <rect x="168.824" y="1083.27" width="1669.32" height="980.239" style="fill:white;fill-opacity:0.5;"/>
                <g transform="matrix(40,0,0,40,1067.46,2015.13)">
                </g>
                <text x="214.38px" y="2015.13px" style="font-family:'MontserratThin-Medium', 'Montserrat Thin';font-weight:500;font-size:40px;">Erst<tspan x="293.42px " y="2015.13px ">e</tspan>s K<tspan x="376.94px " y="2015.13px ">a</tspan>pit<tspan x="455.14px " y="2015.13px ">e</tspan>l: Der Ursprung der Negation</text>
                <g>
                    <rect x="243.384" y="1623.7" width="1552.72" height="312.429" style="fill:white;fill-opacity:0.5;"/>
                    <g transform="matrix(36,0,0,36,477.735,1899.91)">
                    </g>
                    <text x="273.219px" y="1899.9px" style="font-family:'MontserratThin-Medium', 'Montserrat Thin';font-weight:500;font-size:36px;">I. Die F<tspan x="396.231px 409.335px " y="1899.9px 1899.9px ">ra</tspan>ge</text>
                </g>
                <g>
                    <rect x="243.384" y="1260.96" width="1552.72" height="312.429" style="fill:white;fill-opacity:0.5;"/>
                    <g transform="matrix(36,0,0,36,601.395,1537.16)">
                    </g>
                    <text x="273.219px" y="1537.16px" style="font-family:'MontserratThin-Medium', 'Montserrat Thin';font-weight:500;font-size:36px;">II. Die Negationen</text>
                </g>
                <rect x="168.824" y="121.731" width="1669.32" height="924.44" style="fill:white;fill-opacity:0.5;"/>
                <g transform="matrix(48,0,0,48,1040.22,2156.94)">
                </g>
                <text x="164.84px" y="2156.94px" style="font-family:'MontserratThin-Bold', 'Montserrat Thin';font-weight:700;font-size:48px;">Erst<tspan x="263.288px " y="2156.94px ">e</tspan>r T<tspan x="354.872px " y="2156.94px ">e</tspan>il: Das P<tspan x="583.208px 603.464px " y="2156.94px 2156.94px ">ro</tspan>blem des Nic<tspan x="960.68px " y="2156.94px ">h</tspan>ts</text>
                <g transform="matrix(40,0,0,40,956.02,1006.63)">
                </g>
                <text x="214.38px" y="1006.63px" style="font-family:'MontserratThin-Medium', 'Montserrat Thin';font-weight:500;font-size:40px;">Z<tspan x="240.18px 275.54px " y="1006.63px 1006.63px ">we</tspan>it<tspan x="327.02px " y="1006.63px ">e</tspan>s K<tspan x="410.54px " y="1006.63px ">a</tspan>pit<tspan x="488.74px " y="1006.63px ">e</tspan>l: Die Unaufr<tspan x="763.78px 774.94px 797.5px " y="1006.63px 1006.63px 1006.63px ">ich</tspan>tigk<tspan x="903.82px " y="1006.63px ">e</tspan>it</text>
                <g>
                    <rect x="243.384" y="583.951" width="1552.72" height="312.429" style="fill:white;fill-opacity:0.5;"/>
                    <g transform="matrix(36,0,0,36,786.543,860.153)">
                    </g>
                    <text x="273.219px" y="860.153px" style="font-family:'MontserratThin-Medium', 'Montserrat Thin';font-weight:500;font-size:36px;">I. Unaufr<tspan x="428.343px 438.387px 458.691px " y="860.153px 860.153px 860.153px ">ich</tspan>tigk<tspan x="554.379px " y="860.153px ">e</tspan>it und L<tspan x="715.299px " y="860.153px ">ü</tspan>ge</text>
                </g>
                <g>
                    <rect x="243.384" y="230.218" width="1552.72" height="312.429" style="fill:white;fill-opacity:0.5;"/>
                    <g transform="matrix(36,0,0,36,1088.44,506.42)">
                    </g>
                    <text x="273.219px" y="506.42px" style="font-family:'MontserratThin-Medium', 'Montserrat Thin';font-weight:500;font-size:36px;">II. Die V<tspan x="408.543px 430.575px 445.083px " y="506.42px 506.42px 506.42px ">erh</tspan>al<tspan x="501.639px 515.895px " y="506.42px 506.42px ">te</tspan>ns<tspan x="580.119px 611.943px " y="506.42px 506.42px ">we</tspan>isen der Unaufr<tspan x="915.423px 925.467px 945.771px " y="506.42px 506.42px 506.42px ">ich</tspan>tigk<tspan x="1041.46px " y="506.42px ">e</tspan>it</text>
                </g>
            </g>
            <g>
                <rect x="244.747" y="3402.72" width="1558.51" height="363.939" style="fill:white;fill-opacity:0.5;"/>
                <g transform="matrix(36,0,0,36,741.52,3743.11)">
                </g>
                <text x="261.46px" y="3743.11px" style="font-family:'MontserratThin-Regular', 'Montserrat Thin';font-size:36px;">I. Die Idee des Phänomens</text>
            </g>
            <g>
                <rect x="244.747" y="3006.53" width="1558.51" height="363.939" style="fill:white;fill-opacity:0.5;"/>
                <g transform="matrix(36,0,0,36,1209.12,3346.92)">
                </g>
                <text x="261.46px" y="3346.92px" style="font-family:'MontserratThin-Regular', 'Montserrat Thin';font-size:36px;">I. Das Seinsphänomen und das Sein des Phänomens</text>
            </g>
            <g>
                <rect x="244.747" y="2618.73" width="1558.51" height="363.939" style="fill:white;fill-opacity:0.5;"/>
                <g transform="matrix(1.84755,0,0,1.84755,-8111.97,-4184.79)">
                    <text x="4532.17px" y="3866.69px" style="font-family:'MontserratThin-Regular', 'Montserrat Thin';font-size:19.485px;">I. Das</text>
                    <g transform="matrix(19.4852,0,0,19.4852,4642.8,3866.69)">
                        <path d="M0.059,-0L0.177,-0.592C0.187,-0.641 0.207,-0.68 0.238,-0.707C0.268,-0.733 0.308,-0.747 0.357,-0.747C0.378,-0.747 0.398,-0.744 0.417,-0.738C0.436,-0.732 0.451,-0.724 0.463,-0.713L0.431,-0.661C0.412,-0.678 0.388,-0.687 0.357,-0.687C0.326,-0.687 0.302,-0.679 0.284,-0.663C0.265,-0.646 0.252,-0.62 0.245,-0.584L0.229,-0.507L0.225,-0.476L0.13,-0L0.059,-0ZM0.058,-0.466L0.069,-0.525L0.394,-0.525L0.382,-0.466L0.058,-0.466ZM0.386,-0L0.534,-0.742L0.605,-0.742L0.457,-0L0.386,-0Z" style="fill-rule:nonzero;"/>
                    </g>
                    <g transform="matrix(19.4852,0,0,19.4852,4642.8,3866.69)">
                    </g>
                    <g transform="matrix(19.4852,0,0,19.4852,4649.42,3866.69)">
                    </g>
                    <text x="4589.49px" y="3866.69px" style="font-family:'MontserratThin-Italic', 'Montserrat Thin';font-style:italic;font-size:19.485px;">pr<tspan x="4610.27px 4623.48px 4631.04px 4654.67px 4666.15px " y="3866.69px 3866.69px 3866.69px 3866.69px 3866.69px ">äreex</tspan>iv<tspan x="4692.06px " y="3866.69px ">e</tspan></text>
                    <text x="4708.94px" y="3866.69px" style="font-family:'MontserratThin-Regular', 'Montserrat Thin';font-size:19.485px;">C<tspan x="4722.5px " y="3866.69px ">o</tspan>git<tspan x="4760.85px " y="3866.69px ">o</tspan> und das Sein des</text>
                    <g transform="matrix(19.4852,0,0,19.4852,5041.84,3866.69)">
                    </g>
                    <text x="4948.94px" y="3866.69px" style="font-family:'MontserratThin-Italic', 'Montserrat Thin';font-style:italic;font-size:19.485px;">per<tspan x="4981.48px 4992.29px " y="3866.69px 3866.69px ">ci</tspan>per<tspan x="5030.07px " y="3866.69px ">e</tspan></text>
                </g>
            </g>
        </g>
    </g>
</svg>
