<?xml version="1.0" encoding="UTF-8" standalone="no"?>
<!DOCTYPE svg PUBLIC "-//W3C//DTD SVG 1.1//EN" "http://www.w3.org/Graphics/SVG/1.1/DTD/svg11.dtd">
<svg width="100%" height="100%" viewBox="0 0 2992 1624" version="1.1" xmlns="http://www.w3.org/2000/svg" xmlns:xlink="http://www.w3.org/1999/xlink" xml:space="preserve" xmlns:serif="http://www.serif.com/" style="fill-rule:evenodd;clip-rule:evenodd;stroke-linejoin:round;stroke-miterlimit:2;">
    <rect id="export" x="0" y="0" width="2992" height="1624" style="fill:none;"/>
    <clipPath id="_clip1">
        <rect x="0" y="0" width="2992" height="1624"/>
    </clipPath>
    <g clip-path="url(#_clip1)">
        <rect id="map" x="-0" y="541.333" width="2992" height="1082.8" style="fill:rgb(251,229,171);"/>
        <rect id="timeline" x="-0" y="0" width="2992" height="541.333" style="fill:rgb(178,231,219);"/>
        <clipPath id="_clip2">
            <rect x="-0" y="0" width="2992" height="541.333"/>
        </clipPath>
        <g clip-path="url(#_clip2)">
            <g id="timeline-numbers">
                <rect x="335.252" y="221.301" width="18.289" height="228.607" style="fill:rgb(182,145,49);"/>
                <text x="241.478px" y="155.984px" style="font-family:'MontserratThin-Regular', 'Montserrat Thin';font-size:91.443px;fill:rgb(94,86,75);">12<tspan x="326.245px " y="155.984px ">0</tspan>0</text>
                <rect x="465.885" y="247.427" width="18.289" height="176.354" style="fill:rgb(221,195,126);"/>
                <rect x="596.517" y="247.427" width="18.289" height="176.354" style="fill:rgb(221,195,126);"/>
                <rect x="727.15" y="247.427" width="18.289" height="176.354" style="fill:rgb(221,195,126);"/>
                <rect x="857.782" y="247.427" width="18.289" height="176.354" style="fill:rgb(221,195,126);"/>
                <rect x="988.415" y="247.427" width="18.289" height="176.354" style="fill:rgb(182,145,49);"/>
                <rect x="1119.05" y="247.427" width="18.289" height="176.354" style="fill:rgb(221,195,126);"/>
                <rect x="1249.68" y="247.427" width="18.289" height="176.354" style="fill:rgb(221,195,126);"/>
                <rect x="1380.31" y="247.427" width="18.289" height="176.354" style="fill:rgb(221,195,126);"/>
                <rect x="1510.94" y="247.427" width="18.289" height="176.354" style="fill:rgb(221,195,126);"/>
                <rect x="1641.58" y="221.301" width="18.289" height="228.607" style="fill:rgb(182,145,49);"/>
                <text x="1547.89px" y="155.984px" style="font-family:'MontserratThin-Regular', 'Montserrat Thin';font-size:91.443px;fill:rgb(94,86,75);">1300</text>
                <rect x="1772.21" y="247.427" width="18.289" height="176.354" style="fill:rgb(221,195,126);"/>
                <rect x="1902.84" y="247.427" width="18.289" height="176.354" style="fill:rgb(221,195,126);"/>
                <rect x="2033.48" y="247.427" width="18.289" height="176.354" style="fill:rgb(221,195,126);"/>
                <rect x="2164.11" y="247.427" width="18.289" height="176.354" style="fill:rgb(221,195,126);"/>
                <rect x="2294.74" y="247.427" width="18.289" height="176.354" style="fill:rgb(182,145,49);"/>
                <rect x="2425.37" y="247.427" width="18.289" height="176.354" style="fill:rgb(221,195,126);"/>
                <rect x="2556.01" y="247.427" width="18.289" height="176.354" style="fill:rgb(221,195,126);"/>
                <rect x="2686.64" y="247.427" width="18.289" height="176.354" style="fill:rgb(221,195,126);"/>
                <rect x="2817.27" y="247.427" width="18.289" height="176.354" style="fill:rgb(221,195,126);"/>
                <rect x="2947.9" y="221.301" width="18.289" height="228.607" style="fill:rgb(182,145,49);"/>
                <text x="2849.78px" y="155.984px" style="font-family:'MontserratThin-Regular', 'Montserrat Thin';font-size:91.443px;fill:rgb(94,86,75);">1400</text>
            </g>
        </g>
    </g>
</svg>
