<?xml version="1.0" encoding="UTF-8" standalone="no"?>
<!DOCTYPE svg PUBLIC "-//W3C//DTD SVG 1.1//EN" "http://www.w3.org/Graphics/SVG/1.1/DTD/svg11.dtd">
<svg width="100%" height="100%" viewBox="0 0 1496 542" version="1.1" xmlns="http://www.w3.org/2000/svg" xmlns:xlink="http://www.w3.org/1999/xlink" xml:space="preserve" xmlns:serif="http://www.serif.com/" style="fill-rule:evenodd;clip-rule:evenodd;stroke-linecap:round;stroke-linejoin:round;stroke-miterlimit:1.5;">
    <path id="start" d="M357.088,298.528L583.194,271L726.032,112.373L886.287,242.899L1017.54,271L807.254,433.305L622.119,409.408L357.088,298.528Z"/>
    <path id="start2" d="M265.621,433.305L583.194,271L726.397,21.254L886.287,242.899L1153.1,474.535L807.254,433.305L622.119,409.408L265.621,433.305Z"/>
    <path id="target" d="M301.136,296.784L487.226,271L529.476,302.842L667.166,90.481L848.299,130.767L906.366,216.205L1090.1,271L940.809,380.942L936.633,515.569L687.312,518.372L674.817,471.662L437.036,433.305L301.136,296.784Z" style="stroke:black;stroke-width:1px;"/>
</svg>
